<?xml version="1.0" encoding="utf-8"?>
<!-- Generator: Adobe Illustrator 17.0.0, SVG Export Plug-In . SVG Version: 6.00 Build 0)  -->
<!DOCTYPE svg PUBLIC "-//W3C//DTD SVG 1.1//EN" "http://www.w3.org/Graphics/SVG/1.1/DTD/svg11.dtd">
<svg version="1.1" id="Layer_1" xmlns="http://www.w3.org/2000/svg" xmlns:xlink="http://www.w3.org/1999/xlink" x="0px" y="0px"
	 width="2em" height="2em" viewBox="0 0 20.306 20.306" enable-background="new 0 0 20.306 20.306" xml:space="preserve">
<g>
	<path fill="#333333" d="M5.459,11.231l11.597-2.778c-0.642-0.911-3.56-5.046-3.842-5.441c-0.317-0.444,0.008-0.65,0.523-0.737
		c0.515-0.087,4.952-0.832,5.333-0.888c0.32-0.047,0.583-0.149,1.026,0.261C19.688,0.68,18.731,0,17.614,0H2.693
		C1.379,0,0.286,0.941,0.048,2.185L5.459,11.231z"/>
	<path fill="#333333" d="M19.237,2.433c-0.174,0.04-4.033,0.737-4.271,0.769c-0.238,0.032-0.158,0.166-0.063,0.301l3.396,4.659
		c0,0,0.975-0.242,2.008-0.497V3.323c-0.279-0.357-0.481-0.615-0.531-0.684C19.562,2.346,19.411,2.393,19.237,2.433z"/>
	<path fill="#333333" d="M20.306,12.802c-0.987-1.352-2.062-2.824-2.165-2.972c-0.139-0.2-0.217-0.239-0.548-0.133L6.285,12.639
		c0,0,3.471,6.006,3.737,6.392c0.267,0.385,0.43,0.356,0.637,0.267c0.161-0.069,6.604-2.247,9.647-3.278V12.802z"/>
	<path fill="#333333" d="M20.306,10.813V9.114c-0.444,0.118-0.82,0.218-1.059,0.282C19.556,9.808,19.919,10.295,20.306,10.813z"/>
	<path fill="#333333" d="M13.363,20.306h4.251c1.417,0,2.578-1.095,2.684-2.485C18.126,18.605,15.317,19.613,13.363,20.306z"/>
	<path fill="#333333" d="M4.693,13.057C3.431,13.388,1.618,13.861,0,14.28v3.334c0,1.487,1.206,2.693,2.693,2.693h6.094
		C7.988,19.004,5.819,15.097,4.693,13.057z"/>
	<path fill="#333333" d="M3.744,11.306C3.677,11.19,1.916,8.15,0,4.843v7.704c1.767-0.422,3.592-0.857,3.665-0.875
		C3.963,11.601,3.892,11.563,3.744,11.306z"/>
</g>
<polygon fill="#333333" points="8.276,4.412 9.297,4.136 9.297,4.608 8.597,4.843 "/>
</svg>
